# xmcd
#
# Track frame offsets:
#      150
#      22826
#      44406
#      61620
#      83224
#      103160
#      119886
#      140329
#      153455
#      174756
#      193397
#      218635
# 
# Disc length: 3206 seconds
#
# Revision: 18
# Processed by: cddbd v1.4PL0 Copyright (c) Steve Scherf et al.
#
# Submitted via: FreeRIP 1.21
#
DISCID=a20c840c
DTITLE=XII Stone Altar - Armed to the Teeth
DYEAR=2000
DGENRE=Blues
TTITLE0=Undernearth my mask
TTITLE1=Flower
TTITLE2=what am i saying
TTITLE3=master piece
TTITLE4=road-n-arrows
TTITLE5=come away
TTITLE6=Holy of Holies
TTITLE7=John the Baptist
TTITLE8=Walk on
TTITLE9=Jesus Knockin'
TTITLE10=God came down
TTITLE11=Nero
EXTD=YEAR: 2000 ID3G: 0
EXTT0=
EXTT1=
EXTT2=
EXTT3=
EXTT4=
EXTT5=
EXTT6=
EXTT7=
EXTT8=
EXTT9=
EXTT10=
EXTT11=
PLAYORDER=
